<?xml version="1.0" encoding="utf-8"?>
<!-- Generator: Adobe Illustrator 16.0.4, SVG Export Plug-In . SVG Version: 6.00 Build 0)  -->
<!DOCTYPE svg PUBLIC "-//W3C//DTD SVG 1.1//EN" "http://www.w3.org/Graphics/SVG/1.1/DTD/svg11.dtd">
<svg version="1.1" id="logo_x5F_christmasxp" xmlns="http://www.w3.org/2000/svg" xmlns:xlink="http://www.w3.org/1999/xlink"
	 x="0px" y="0px" width="800px" height="400px" viewBox="0 0 800 400" enable-background="new 0 0 800 400" xml:space="preserve">
<g id="pursuit">
	<path fill="#FFFFFF" d="M459.65,318.604h16.091c1.744,0,3.433,0.173,5.056,0.503c1.623,0.439,3.272,1.343,4.938,2.702
		c1.398,1.03,2.53,2.491,3.402,4.4c0.912,1.846,1.367,4.022,1.367,6.537c0,3.394-1.154,6.482-3.473,9.271
		c-2.373,2.931-5.849,4.439-10.418,4.525h-10.245v17.883h-6.717V318.604z M466.367,340.014h9.979
		c2.499-0.047,4.38-0.849,5.641-2.404c1.202-1.517,1.799-3.198,1.799-5.052c0-1.531-0.243-2.828-0.731-3.882
		c-0.51-0.951-1.217-1.697-2.137-2.239c-1.383-0.912-2.986-1.335-4.816-1.297h-9.735V340.014z"/>
	<path fill="#FFFFFF" d="M507.993,318.604h6.718v29.573c0.04,3.119,0.916,5.5,2.624,7.135c1.667,1.721,3.811,2.585,6.431,2.585
		s4.785-0.864,6.494-2.585c1.666-1.635,2.522-4.016,2.562-7.135v-29.573h6.717v30.296c-0.078,4.824-1.595,8.643-4.541,11.472
		c-2.958,2.915-6.703,4.393-11.232,4.432c-4.447-0.039-8.16-1.517-11.145-4.424c-3.044-2.828-4.588-6.646-4.628-11.456V318.604z"/>
	<path fill="#FFFFFF" d="M560.36,318.604h17.341c3.697,0,6.717,1.006,9.051,3.018c2.813,2.285,4.278,5.547,4.4,9.773
		c-0.079,6.223-2.939,10.458-8.572,12.696l10.277,20.335h-7.987l-9.185-19.58h-8.607v19.58h-6.718V318.604z M567.078,338.693h10.194
		c2.522-0.047,4.416-0.802,5.676-2.271c1.242-1.367,1.862-3.049,1.862-5.044c-0.04-2.396-0.786-4.124-2.231-5.201
		c-1.139-0.942-2.785-1.414-4.942-1.414h-10.56V338.693z"/>
	<path fill="#FFFFFF" d="M611.167,353.323c3.532,3.01,7.74,4.525,12.615,4.573c5.767-0.087,8.69-2.216,8.776-6.388
		c0.039-3.418-1.89-5.477-5.791-6.168c-1.784-0.251-3.74-0.534-5.877-0.849c-3.811-0.652-6.718-2.106-8.706-4.368
		c-2.05-2.334-3.072-5.162-3.072-8.494c0-4.007,1.285-7.236,3.858-9.688c2.499-2.436,6.034-3.669,10.615-3.717
		c5.516,0.126,10.308,1.705,14.386,4.738l-3.748,5.704c-3.327-2.271-6.993-3.441-10.992-3.528c-2.074,0-3.795,0.535-5.177,1.604
		c-1.446,1.116-2.185,2.766-2.224,4.974c0,1.32,0.495,2.514,1.493,3.583c0.99,1.093,2.585,1.846,4.777,2.263
		c1.218,0.212,2.884,0.456,4.997,0.723c4.156,0.589,7.236,2.13,9.224,4.628c1.968,2.451,2.954,5.304,2.954,8.557
		c-0.224,8.76-5.413,13.207-15.572,13.333c-6.576,0-12.218-2.082-16.948-6.255L611.167,353.323z"/>
	<path fill="#FFFFFF" d="M657.735,318.604h6.718v29.573c0.043,3.119,0.916,5.5,2.621,7.135c1.669,1.721,3.811,2.585,6.435,2.585
		c2.62,0,4.785-0.864,6.494-2.585c1.666-1.635,2.518-4.016,2.562-7.135v-29.573h6.717v30.296c-0.082,4.824-1.591,8.643-4.537,11.472
		c-2.962,2.915-6.71,4.393-11.236,4.432c-4.447-0.039-8.163-1.517-11.145-4.424c-3.044-2.828-4.588-6.646-4.628-11.456V318.604z"/>
	<path fill="#FFFFFF" d="M710.102,318.604h6.718v45.822h-6.718V318.604z"/>
	<path fill="#FFFFFF" d="M745.243,324.764H733.08v-6.16h31.059v6.16H751.96v39.662h-6.717V324.764z"/>
</g>
<path id="loupe" fill="#FFFFFF" d="M207.759,265.129c-2.671-2.259-6.635-1.473-8.847,1.752c-2.208,3.221-1.831,7.668,0.844,9.924
	c0.067,0.055,0.142,0.086,0.204,0.141l-0.012,0.017l106.934,91.777c0.098,0.086,0.173,0.196,0.271,0.283
	c0.09,0.07,0.185,0.117,0.275,0.188l0.012,0.008l0,0c2.667,1.973,6.427,1.171,8.556-1.949c2.113-3.087,1.838-7.267-0.523-9.601
	l0.02-0.03l-0.291-0.244c-0.015-0.016-0.023-0.032-0.043-0.047c-0.016-0.017-0.036-0.023-0.051-0.032l-107.063-91.888
	C207.948,265.333,207.869,265.216,207.759,265.129z"/>
<g id="weet">
	<path fill="#A9D8FF" d="M427.609,222.764c-4.054,10.474-10.815,20.609-20.617,30.415c-9.46,9.797-19.934,14.527-31.758,14.527
		c-11.833,0-19.941-4.393-24.333-13.176c-10.136,8.783-19.595,13.176-28.383,13.176c-17.234,0-27.032-9.121-27.032-25.685
		c0-4.393,1.689-10.812,5.068-18.582l37.847-82.789c5.068-11.825,22.298-8.108,16.555,6.757l-38.185,83.464
		c-2.027,5.068-3.041,8.785-3.041,11.149c0,5.406,3.041,8.108,8.789,8.108c12.166,0,24.329-13.177,30.072-25.676l38.185-83.803
		c5.744-12.163,22.64-5.068,16.896,7.095l-37.51,81.437c-2.364,5.406-3.716,9.799-3.716,12.839c0,5.406,3.041,8.108,8.789,8.108
		c7.095,0,14.189-3.717,20.609-10.811c6.419-7.095,10.811-13.515,13.18-19.258l12.504-29.063
		c6.082-14.527,9.122-25.009,9.122-31.428c0-4.392-1.014-7.771-2.703-10.811c-7.095-12.163,7.433-20.947,14.865-10.135
		c3.716,5.743,5.743,12.5,5.743,20.608c0,11.157-4.054,26.022-12.163,43.929L427.609,222.764z"/>
	<path fill="#A9D8FF" d="M550.939,155.854c0,5.067-1.013,9.798-2.703,14.536c-10.135,26.69-26.014,40.212-47.644,40.212
		c-2.027,0-5.406-0.338-9.798-1.359c-4.392-1.352-7.433,0-9.122,4.062c-3.72,9.121-5.414,15.878-5.414,19.933
		c0,10.812,6.765,16.555,20.279,16.893c17.572,0,33.455-14.189,40.55-27.366c6.419-12.162,21.626-4.392,15.879,7.095
		c-5.068,10.137-12.501,18.92-22.974,26.698c-10.481,7.433-21.63,11.149-33.455,11.149c-23.316,0-39.536-11.487-39.536-32.779
		c0-7.095,2.364-16.217,7.433-26.698l18.251-38.515c11.487-24.671,25.677-36.833,42.239-36.833
		C541.48,132.88,550.939,141.326,550.939,155.854z M524.925,150.449c-9.126-1.351-17.238,6.419-24.333,22.981l-4.392,9.797
		c-2.365,5.744,0,8.785,6.757,8.785c10.478,0,19.266-7.771,25.685-23.312C533.371,157.543,532.02,151.462,524.925,150.449z"/>
	<path fill="#A9D8FF" d="M663.13,155.854c0,5.067-1.014,9.798-2.703,14.536c-10.14,26.69-26.022,40.212-47.645,40.212
		c-2.031,0-5.41-0.338-9.805-1.359c-4.392-1.352-7.433,0-9.122,4.062c-3.717,9.121-5.406,15.878-5.406,19.933
		c0,10.812,6.757,16.555,20.275,16.893c17.572,0,33.451-14.189,40.55-27.366c6.423-12.162,21.627-4.392,15.883,7.095
		c-5.067,10.137-12.504,18.92-22.981,26.698c-10.474,7.433-21.622,11.149-33.451,11.149c-23.315,0-39.532-11.487-39.532-32.779
		c0-7.095,2.365-16.217,7.433-26.698l18.244-38.515c11.491-24.671,25.685-36.833,42.239-36.833
		C653.666,132.88,663.13,141.326,663.13,155.854z M637.107,150.449c-9.122-1.351-17.231,6.419-24.326,22.981l-4.396,9.797
		c-2.365,5.744,0,8.785,6.761,8.785c10.473,0,19.257-7.771,25.677-23.312C645.553,157.543,644.202,151.462,637.107,150.449z"/>
	<path fill="#A9D8FF" d="M751.32,152.138h-9.801c-4.392,0-7.771,2.027-9.46,6.082l-32.441,71.977
		c-4.392,10.475-2.027,19.934,9.126,19.934c7.099,0,13.18-3.379,18.586-11.148c5.405-7.771,5.405-8.785,9.122-15.542
		c2.703-5.067,6.419-6.419,11.491-4.392c5.068,1.689,6.757,5.406,4.73,10.811c-3.717,8.446-9.464,16.555-17.572,24.672
		c-7.771,7.771-16.555,12.161-26.356,13.176c-18.923,1.689-30.748-8.108-30.748-25.347c0-5.068,1.689-11.487,5.067-18.92
		l30.072-65.22c1.693-4.054,1.018-6.082-1.351-6.082c-5.068,0-7.771-2.365-8.108-6.757c-0.337-4.729,2.027-8.108,6.419-9.797
		c1.351-0.675,3.04-1.013,4.733-1.013h1.352c4.73,0,7.771-2.027,9.46-6.082l12.838-27.036c5.744-12.163,23.658-7.433,16.559,7.095
		l-9.464,19.941c-1.689,4.054-0.338,6.082,4.059,6.082h4.73c4.734,0,7.436,2.365,7.774,6.756c0.338,5.068-1.689,8.447-6.423,10.136
		L751.32,152.138z"/>
</g>
<g>
	<path fill="#A9D8FF" d="M227.232,140.651c5.924,18.07,9.25,32.248,9.98,42.299l18.384,5.089c0.003-0.366,0.015-0.729,0.015-1.096
		c0-13.176-3.716-31.09-10.811-53.05c-1.634-4.903-3.065-9.502-4.304-13.817l-20.48-5.669
		C221.788,122.231,224.199,130.974,227.232,140.651z"/>
	<path fill="#A9D8FF" d="M185.331,271.084c-14.531,7.096-29.738,10.812-45.618,10.812c-2.265,0-4.495-0.091-6.705-0.233
		l44.201,12.235c14.631-4.928,28.522-12.657,40.897-22.814c7.307-5.999,13.797-13.271,19.246-21.53l-19.584-5.422
		C208.722,255.949,197.773,265.008,185.331,271.084z"/>
	<path fill="#A9D8FF" d="M80.236,260.273c-16.555-14.536-25.339-33.117-26.353-55.423c-0.095-2.064-0.099-4.093-0.057-6.104
		l-18.043-4.995c-0.242,3.638-0.297,7.336-0.152,11.099c0.771,21.311,7.017,39.687,18.562,54.995l42.616,11.797
		C91.001,268.559,85.473,264.774,80.236,260.273z"/>
	<path fill="#A9D8FF" d="M307.652,38.267c-9.126-7.103-19.937-10.819-31.762-10.819c-14.531,0-28.387,5.405-40.888,16.562
		c-2.994,2.669-5.61,5.539-7.872,8.601l19.474,5.391c0.405-0.389,0.811-0.777,1.236-1.153c9.126-7.771,18.585-11.825,28.387-11.825
		c15.879,0,27.032,9.798,27.032,23.312c0,1.722-0.254,3.456-0.74,5.144L320,78.317c1.002-3.265,1.509-6.599,1.509-9.982
		C321.508,55.497,316.778,45.361,307.652,38.267z"/>
	<path fill="#A9D8FF" d="M130.926,123.42c35.018,0,54.937,19.796,55.075,45.352l17.935,4.965c0.207-1.602,0.315-3.171,0.315-4.699
		c0-17.915-6.418-32.78-18.919-45.28c-12.504-12.508-30.415-18.59-53.729-18.59c-28.007,0-51.079,9.875-69.538,29.294l20.457,5.663
		C95.981,129.001,112.174,123.42,130.926,123.42z"/>
	<path fill="#FFFFFF" d="M186.007,169.039c0,12.838-6.085,23.312-18.589,31.419c-10.812,6.757-2.365,21.968,9.801,14.535
		c7.774-4.392,14.194-11.156,19.261-20.279c4.071-7.328,6.612-14.436,7.456-20.977L186,168.772
		C186.001,168.862,186.007,168.949,186.007,169.039z"/>
	<path fill="#FFFFFF" d="M285.012,87.938c-12.162,0-13.852,17.568,0,17.568c10.812-0.338,19.6-4.392,26.36-12.163
		c4.155-4.778,7.027-9.815,8.627-15.027l-17.479-4.838C300.435,80.73,294.057,87.116,285.012,87.938z"/>
	<path fill="#FFFFFF" d="M74.493,147.746c2.554-2.785,5.236-5.313,8.027-7.62l-20.457-5.663c-0.249,0.261-0.5,0.518-0.747,0.783
		c-15.643,17.087-24.079,36.665-25.533,58.506l18.043,4.995C54.235,179.364,61.024,162.438,74.493,147.746z"/>
	<path fill="#FFFFFF" d="M216.417,87.938c0,7.158,1.224,15.986,3.599,26.469l20.48,5.669c-3.885-13.53-5.832-24.197-5.832-32.138
		c0-12.224,3.986-22.294,11.94-29.937l-19.474-5.391C219.945,62.336,216.417,74.058,216.417,87.938z"/>
	<path fill="#FFFFFF" d="M96.811,271.643l-42.616-11.797c3.651,4.842,7.819,9.384,12.528,13.604
		c19.937,17.905,44.266,26.697,72.991,26.697c12.714,0,25.359-2.161,37.496-6.249l-44.201-12.235
		C119.967,280.823,107.875,277.518,96.811,271.643z"/>
	<path fill="#FFFFFF" d="M237.368,186.944c0,19.258-5.067,36.158-15.207,51.023c-1.407,2.136-2.876,4.185-4.393,6.165l19.584,5.422
		c11.257-17.063,18.037-38.365,18.245-61.514l-18.384-5.089C237.315,184.362,237.368,185.695,237.368,186.944z"/>
</g>
</svg>
